<?xml version="1.0" standalone="no"?>
<!DOCTYPE svg PUBLIC "-//W3C//DTD SVG 20010904//EN"
 "http://www.w3.org/TR/2001/REC-SVG-20010904/DTD/svg10.dtd">
<svg version="1.0" xmlns="http://www.w3.org/2000/svg"
 width="128.000000pt" height="128.000000pt" viewBox="0 0 128.000000 128.000000"
 preserveAspectRatio="xMidYMid meet">
<metadata>
Created by potrace 1.11, written by Peter Selinger 2001-2013
</metadata>
<g transform="translate(0.000000,128.000000) scale(0.100000,-0.100000)"
fill="#000000" stroke="none">
<path d="M622 1272 c-19 -13 -31 -67 -22 -104 5 -18 17 -56 27 -84 l19 -52 24
67 c13 36 26 75 27 86 10 60 -35 112 -75 87z"/>
<path d="M474 1236 c-26 -40 -5 -92 73 -184 l28 -33 -1 73 c-2 106 -3 111 -22
136 -25 33 -59 36 -78 8z"/>
<path d="M750 1240 c-19 -19 -36 -67 -33 -97 0 -7 1 -38 2 -70 l1 -56 29 41
c16 22 35 43 40 47 15 9 41 73 41 101 0 20 -32 54 -52 54 -5 0 -17 -9 -28 -20z"/>
<path d="M884 1188 c-26 -12 -57 -67 -74 -133 -7 -27 -18 -56 -23 -63 -6 -7
23 9 64 36 74 49 99 81 99 126 0 29 -36 47 -66 34z"/>
<path d="M352 1178 c-19 -19 -14 -61 11 -88 12 -14 49 -43 83 -66 l61 -40 -13
35 c-7 20 -18 55 -24 77 -17 71 -83 117 -118 82z"/>
<path d="M261 1084 c-49 -35 2 -102 97 -127 31 -8 65 -18 75 -22 12 -5 6 11
-21 51 -64 95 -111 126 -151 98z"/>
<path d="M987 1089 c-38 -10 -50 -22 -101 -94 l-43 -62 70 19 c105 28 148 67
132 117 -7 25 -23 30 -58 20z"/>
<path d="M193 963 c-25 -10 -15 -60 16 -83 26 -18 42 -20 119 -18 l90 2 -32
23 c-109 80 -147 95 -193 76z"/>
<path d="M995 954 c-16 -9 -34 -21 -40 -28 -5 -6 -24 -23 -42 -38 l-32 -26 80
-1 c85 -1 130 14 148 48 7 13 6 24 -5 39 -18 26 -65 29 -109 6z"/>
<path d="M613 859 c-49 -18 -59 -95 -17 -128 15 -12 37 -21 50 -21 33 0 77 41
77 73 0 30 -27 77 -46 78 -6 0 -19 2 -27 3 -8 2 -25 0 -37 -5z"/>
<path d="M179 827 c-39 -30 -27 -71 26 -86 32 -8 59 -3 143 27 l53 19 -71 27
c-77 28 -126 32 -151 13z"/>
<path d="M975 820 c-22 -10 -48 -19 -57 -19 -9 -1 -20 -7 -24 -13 -4 -7 -4
-10 0 -6 5 4 33 -4 63 -18 72 -31 137 -34 164 -7 16 16 18 24 10 45 -16 42
-87 50 -156 18z"/>
<path d="M218 701 c-26 -13 -34 -23 -36 -49 -3 -26 1 -34 20 -41 44 -16 75 -3
179 77 l35 27 -82 1 c-55 0 -93 -5 -116 -15z"/>
<path d="M885 705 c10 -5 38 -27 63 -47 45 -37 85 -56 110 -52 6 1 19 2 27 3
21 1 35 41 24 63 -5 10 -19 23 -32 30 -28 15 -217 18 -192 3z"/>
<path d="M429 640 c-9 -5 -31 -12 -50 -15 -86 -15 -149 -68 -134 -114 13 -41
72 -35 121 13 11 11 86 126 81 126 -1 0 -9 -5 -18 -10z"/>
<path d="M886 581 c54 -81 99 -111 138 -93 60 27 12 102 -83 128 -31 8 -66 19
-78 24 -19 8 -16 -1 23 -59z"/>
<path d="M443 551 c-71 -49 -91 -71 -99 -107 -11 -58 40 -79 88 -37 10 9 24
34 31 57 28 81 39 118 35 120 -1 1 -27 -14 -55 -33z"/>
<path d="M790 586 c0 -3 4 -16 10 -31 5 -14 12 -36 14 -50 8 -42 37 -93 63
-110 58 -38 99 30 53 88 -19 23 -140 113 -140 103z"/>
<path d="M530 503 c-58 -73 -60 -77 -65 -117 -3 -24 1 -38 14 -51 25 -22 49
-17 74 17 16 22 20 43 21 117 1 50 1 91 1 91 0 0 -20 -26 -45 -57z"/>
<path d="M641 535 c-1 -11 -11 -40 -22 -65 -40 -88 -28 -170 25 -170 51 0 67
72 34 154 -11 28 -24 62 -28 76 -7 21 -8 22 -9 5z"/>
<path d="M719 504 c-1 -27 -2 -56 -3 -64 -2 -26 15 -84 32 -102 32 -37 82 -13
82 38 0 27 -37 95 -75 138 l-35 39 -1 -49z"/>
<path d="M156 135 c-25 -25 -20 -42 21 -69 30 -21 33 -26 20 -32 -10 -3 -26
-4 -38 -1 -15 4 -19 1 -17 -11 4 -21 58 -27 82 -9 26 19 14 64 -19 73 -14 3
-25 12 -25 20 0 14 11 18 44 14 11 -1 17 3 14 12 -7 20 -63 22 -82 3z"/>
<path d="M269 85 c-12 -33 -23 -65 -26 -70 -2 -6 6 -11 17 -12 11 -1 20 4 20
13 0 8 6 15 13 16 35 4 42 2 48 -11 3 -8 13 -15 23 -17 19 -3 18 2 -16 93 -27
72 -50 69 -79 -12z m54 -5 c3 -12 0 -20 -7 -20 -19 0 -24 9 -19 30 6 23 18 18
26 -10z"/>
<path d="M390 81 c0 -39 5 -73 11 -76 15 -10 18 -4 20 43 2 23 4 42 6 42 2 0
16 -19 31 -42 15 -24 35 -44 45 -46 15 -3 17 6 17 73 0 57 -3 76 -12 73 -7 -3
-15 -24 -18 -49 l-5 -44 -30 45 c-17 25 -38 46 -48 48 -15 3 -17 -6 -17 -67z"/>
<path d="M575 133 c-31 -78 -43 -123 -33 -129 7 -4 18 2 26 14 17 26 35 28 58
5 20 -20 91 -28 111 -12 24 20 15 57 -17 74 -37 19 -40 39 -5 33 29 -6 38 2
25 21 -9 15 -79 7 -81 -9 -1 -6 -2 -16 -3 -22 -3 -17 23 -48 39 -48 7 0 15 -7
19 -15 4 -11 -2 -15 -24 -15 -26 0 -31 5 -51 60 -22 62 -49 79 -64 43z m35
-60 c0 -7 -6 -13 -14 -13 -9 0 -12 8 -8 26 3 19 7 22 13 12 5 -7 9 -19 9 -25z"/>
<path d="M780 128 c-23 -25 -26 -75 -7 -102 7 -10 29 -20 49 -22 30 -5 39 -1
57 22 28 35 27 69 -4 99 -30 31 -68 32 -95 3z m75 -53 c0 -34 -3 -40 -22 -43
-16 -2 -26 4 -34 21 -15 33 4 69 34 65 18 -2 22 -10 22 -43z"/>
<path d="M945 141 c-8 -14 -45 -122 -45 -133 0 -16 29 -8 34 10 8 23 44 22 61
-1 14 -20 35 -22 34 -4 0 6 -10 39 -22 72 -21 57 -46 80 -62 56z m34 -73 c1
-5 -6 -8 -14 -8 -16 0 -19 9 -8 36 6 16 7 16 14 -2 4 -10 8 -22 8 -26z"/>
<path d="M1047 142 c-2 -4 -3 -36 -3 -72 1 -51 4 -65 16 -65 9 0 15 9 14 23 0
18 15 29 30 20 2 -2 13 6 25 16 22 20 26 42 12 65 -9 14 -88 25 -94 13z m66
-37 c7 -17 -8 -29 -28 -21 -17 6 -9 36 10 36 7 0 15 -7 18 -15z"/>
</g>
</svg>
